<?xml version="1.0" encoding="UTF-8" standalone="no"?>
<!-- Created with Inkscape (http://www.inkscape.org/) -->

<svg
   xmlns:dc="http://purl.org/dc/elements/1.1/"
   xmlns:cc="http://creativecommons.org/ns#"
   xmlns:rdf="http://www.w3.org/1999/02/22-rdf-syntax-ns#"
   xmlns:svg="http://www.w3.org/2000/svg"
   xmlns="http://www.w3.org/2000/svg"
   xmlns:sodipodi="http://sodipodi.sourceforge.net/DTD/sodipodi-0.dtd"
   xmlns:inkscape="http://www.inkscape.org/namespaces/inkscape"
   width="744.09448819"
   height="1052.3622047"
   id="svg2"
   version="1.1"
   inkscape:version="0.48.5 r10040"
   sodipodi:docname="New document 1">
  <defs
     id="defs4" />
  <sodipodi:namedview
     id="base"
     pagecolor="#ffffff"
     bordercolor="#666666"
     borderopacity="1.0"
     inkscape:pageopacity="0.0"
     inkscape:pageshadow="2"
     inkscape:zoom="1.4142136"
     inkscape:cx="174.16734"
     inkscape:cy="540.86863"
     inkscape:document-units="px"
     inkscape:current-layer="layer1"
     showgrid="false"
     inkscape:window-width="3840"
     inkscape:window-height="2094"
     inkscape:window-x="0"
     inkscape:window-y="27"
     inkscape:window-maximized="1" />
  <metadata
     id="metadata7">
    <rdf:RDF>
      <cc:Work
         rdf:about="">
        <dc:format>image/svg+xml</dc:format>
        <dc:type
           rdf:resource="http://purl.org/dc/dcmitype/StillImage" />
        <dc:title></dc:title>
      </cc:Work>
    </rdf:RDF>
  </metadata>
  <g
     inkscape:label="Layer 1"
     inkscape:groupmode="layer"
     id="layer1">
    <path
       inkscape:connector-curvature="0"
       style="fill:#6c7f94;fill-opacity:1;stroke:none"
       d="m 392.11808,854.96978 c 132.54521,0 239.99328,-92.0939 239.99328,-205.69859 l -479.98655,0 c 0,113.60469 107.44807,205.69859 239.99327,205.69859 z"
       id="path3831" />
    <path
       style="fill:#6c7f94;fill-opacity:1;stroke:none"
       d="m 395.27247,364.74538 c -132.54522,0 -240,92.08281 -240,205.6875 l 480,0 c 0,-113.60469 -107.4548,-205.6875 -240,-205.6875 z m -1.0625,120.09375 c 17.67311,0 32,14.32689 32,32 0,17.67311 -14.32689,32 -32,32 -17.67311,0 -32,-14.32689 -32,-32 0,-17.67311 14.32689,-32 32,-32 z"
       id="path3831-2"
       inkscape:connector-curvature="0" />
    <path
       sodipodi:type="arc"
       style="fill:none;stroke:#1f2731;stroke-width:16.05352973999999833;stroke-miterlimit:4;stroke-opacity:1;stroke-dasharray:none"
       id="path3785"
       sodipodi:cx="89.449005"
       sodipodi:cy="603.34937"
       sodipodi:rx="257.03333"
       sodipodi:ry="256.67975"
       d="m 346.48233,603.34937 a 257.03333,256.67975 0 1 1 -514.06665,0 257.03333,256.67975 0 1 1 514.06665,0 z"
       transform="matrix(-0.96579859,0,0,-0.96712898,479.56847,1190.3743)" />
    <path
       sodipodi:type="arc"
       style="fill:#333c45;stroke-width:0;stroke-miterlimit:4;stroke-dasharray:none;fill-opacity:1"
       id="path3765-0-7-6"
       sodipodi:cx="239.35565"
       sodipodi:cy="275.60538"
       sodipodi:rx="12.776933"
       sodipodi:ry="12.776933"
       d="m 252.13258,275.60538 a 12.776933,12.776933 0 1 1 -25.55386,0 12.776933,12.776933 0 1 1 25.55386,0 z"
       transform="matrix(0,2.5045136,2.5045138,0,-297.07876,103.38808)" />
  </g>
</svg>
